<svg xmlns="http://www.w3.org/2000/svg" viewBox="0 0 32 32" aria-label="External"><g fill="currentColor"><path d="M18.773 21.93H9.186v-9.586h6.211l1.604-1.604H8.393a.792.792 0 0 0-.793.794v11.19c0 .438.354.792.793.792h11.19a.792.792 0 0 0 .793-.793v-8.607l-1.603 1.603v6.21Z"></path><path d="M22.823 7.5h-4.506a.792.792 0 1 0 0 1.586h2.565l-7.46 7.477c-.32.32-.32.81 0 1.13a.794.794 0 0 0 .558.237.794.794 0 0 0 .556-.236l7.477-7.46V12.8a.792.792 0 1 0 1.586 0V8.293a.768.768 0 0 0-.776-.793Z"></path></g></svg>
