<?xml version="1.0" standalone="no"?>
<!DOCTYPE svg PUBLIC "-//W3C//DTD SVG 20010904//EN"
 "http://www.w3.org/TR/2001/REC-SVG-20010904/DTD/svg10.dtd">
<svg version="1.0" xmlns="http://www.w3.org/2000/svg"
 width="700.000000pt" height="700.000000pt" viewBox="0 0 700.000000 700.000000"
 preserveAspectRatio="xMidYMid meet">
<metadata>
Created by potrace 1.14, written by Peter Selinger 2001-2017
</metadata>
<g transform="translate(0.000000,700.000000) scale(0.100000,-0.100000)"
fill="#000000" stroke="none">
<path d="M735 6991 c-126 -35 -224 -131 -255 -251 -7 -25 -13 -127 -13 -240
l-2 -195 -200 -6 c-110 -3 -201 -6 -202 -7 -51 -44 -68 -79 -59 -124 7 -39 22
-63 52 -83 24 -15 53 -18 219 -19 l191 0 1 -266 c0 -316 0 -314 59 -585 2 -11
24 -86 48 -167 l44 -148 -265 0 c-290 0 -302 -2 -337 -60 -20 -34 -20 -60 -2
-103 28 -69 36 -70 367 -71 164 -1 301 -5 306 -9 4 -5 10 -302 13 -660 4 -484
8 -657 17 -673 19 -33 59 -54 102 -54 54 0 100 40 110 95 3 22 6 315 5 650 -2
699 5 626 -105 992 -39 129 -82 282 -96 341 l-27 107 -3 610 c-3 479 -1 615 9
634 45 84 173 85 207 1 6 -14 13 -41 16 -60 8 -49 31 -79 72 -96 67 -28 146
18 158 91 10 61 16 75 41 100 14 14 35 26 47 27 12 0 29 2 37 3 20 2 61 -19
82 -42 10 -11 22 -44 28 -73 15 -78 62 -121 125 -114 66 7 96 41 110 121 16
98 107 139 185 83 28 -20 39 -44 55 -123 13 -62 88 -99 148 -73 47 19 66 46
77 106 11 60 30 87 77 106 53 23 102 5 138 -49 17 -26 18 -61 18 -520 0 -469
1 -494 19 -528 46 -83 162 -74 205 16 10 21 10 1022 0 1061 -24 91 -108 192
-194 231 -105 48 -246 38 -338 -25 l-40 -28 -53 32 c-119 72 -255 70 -374 -5
-37 -23 -49 -27 -57 -17 -21 26 -118 65 -177 71 -80 9 -159 -8 -224 -49 -44
-28 -56 -32 -67 -21 -7 8 -37 25 -67 40 -59 29 -174 42 -231 26z"/>
<path d="M4729 6985 c-14 -8 -34 -27 -44 -42 -17 -25 -18 -55 -19 -325 l0
-298 -29 -9 c-17 -7 -266 -11 -653 -11 -686 0 -667 1 -699 -60 -34 -66 -1
-150 66 -167 51 -14 1256 -8 1324 6 80 17 213 53 365 101 145 46 298 87 354
96 21 3 48 8 60 12 11 3 291 7 621 9 657 4 630 6 673 -57 46 -69 -7 -170 -89
-170 -67 0 -128 -62 -123 -126 5 -67 60 -114 132 -114 30 0 91 -50 93 -77 5
-49 4 -61 -7 -83 -20 -41 -47 -59 -105 -70 -57 -10 -108 -52 -110 -88 0 -9 -2
-24 -4 -33 -5 -26 23 -73 53 -91 15 -9 45 -19 67 -22 53 -9 82 -29 100 -72 31
-74 -13 -145 -98 -159 -56 -10 -90 -28 -105 -57 -43 -85 -3 -159 98 -178 29
-6 62 -18 73 -28 64 -58 51 -161 -24 -192 -23 -10 -150 -13 -512 -13 -504 0
-521 -1 -559 -43 -23 -27 -32 -93 -16 -124 7 -13 27 -34 44 -45 31 -21 39 -21
550 -20 l519 1 59 26 c74 32 146 102 183 176 25 50 28 68 27 147 0 78 -4 98
-29 148 -16 31 -34 62 -41 68 -9 7 -4 23 21 65 73 121 72 256 -3 374 l-28 45
28 40 c76 109 73 286 -7 390 l-24 32 26 36 c69 97 80 246 25 353 -39 76 -114
146 -190 175 -51 19 -77 21 -264 22 l-208 1 0 184 c0 151 -3 190 -17 219 -17
37 -61 63 -105 63 -30 0 -84 -33 -98 -61 -8 -14 -13 -90 -15 -208 -1 -102 -3
-189 -4 -192 0 -3 -110 -5 -243 -5 -343 1 -459 -15 -753 -103 l-160 -48 -5
271 c-5 297 -7 303 -66 331 -39 19 -71 19 -105 0z"/>
<path d="M2750 6288 c-33 -18 -70 -75 -66 -102 3 -11 5 -29 5 -38 1 -9 16 -31
35 -49 56 -52 76 -164 71 -389 -4 -166 -19 -234 -84 -365 -68 -139 -121 -200
-432 -501 -59 -57 -119 -126 -139 -159 l-35 -59 -3 -811 -3 -811 23 -34 c62
-91 206 -51 209 58 1 20 2 375 2 788 2 651 4 753 17 770 8 10 55 57 105 104
299 284 384 386 470 565 49 100 83 211 100 320 15 96 5 333 -20 476 -15 82
-67 182 -114 217 -38 28 -107 38 -141 20z"/>
<path d="M2974 4881 c-43 -26 -64 -73 -53 -119 10 -45 59 -92 97 -93 15 -1
369 -2 788 -2 660 -2 763 -4 780 -17 10 -8 62 -60 114 -115 253 -266 363 -361
513 -440 184 -98 308 -127 537 -126 264 2 424 41 507 127 73 76 41 207 -52
215 -58 4 -74 -1 -107 -35 -55 -56 -159 -75 -378 -72 -153 3 -234 20 -347 71
-153 70 -224 130 -534 451 -64 66 -127 121 -160 139 l-54 30 -810 3 c-779 2
-811 2 -841 -17z"/>
<path d="M4739 4071 c-18 -9 -42 -28 -53 -43 -19 -27 -20 -43 -20 -812 -1
-769 -1 -784 -21 -807 -11 -13 -63 -64 -115 -114 -263 -249 -355 -356 -436
-509 -62 -116 -106 -252 -120 -371 -6 -50 -5 -251 1 -323 16 -170 66 -309 129
-357 39 -30 111 -41 145 -23 47 25 68 72 62 139 0 9 -18 35 -40 57 -48 49 -62
114 -67 317 -5 199 20 314 102 464 68 123 115 176 410 462 106 102 148 156
169 216 21 59 21 1611 1 1652 -30 57 -93 80 -147 52z"/>
<path d="M6110 3703 c-18 -16 -34 -43 -38 -63 -4 -19 -7 -309 -6 -645 1 -453
4 -625 14 -670 7 -33 13 -64 15 -70 1 -5 7 -30 14 -55 8 -25 14 -49 15 -55 1
-5 16 -55 34 -110 44 -142 101 -341 108 -378 3 -18 10 -50 16 -72 8 -27 12
-245 15 -650 4 -654 5 -638 -47 -677 -36 -26 -66 -29 -111 -11 -44 17 -66 51
-74 109 -6 50 -30 83 -72 100 -30 13 -41 13 -76 2 -48 -15 -74 -48 -83 -103
-11 -74 -50 -116 -111 -120 -63 -4 -109 39 -123 115 -15 79 -62 121 -128 114
-63 -7 -94 -43 -107 -124 -8 -48 -31 -79 -69 -95 -54 -23 -121 -1 -147 47 -6
12 -14 38 -16 57 -7 49 -38 97 -71 108 -80 27 -145 -16 -162 -107 -14 -76 -51
-113 -113 -113 -51 0 -90 24 -108 66 -9 21 -12 162 -13 522 -1 485 -1 494 -22
522 -56 75 -157 66 -199 -17 -9 -19 -12 -143 -10 -535 1 -280 5 -519 8 -531
61 -229 340 -336 532 -204 37 26 42 27 60 13 44 -34 127 -64 189 -70 76 -6
149 12 216 55 l45 28 40 -27 c64 -43 121 -58 205 -55 77 4 148 28 199 68 24
18 25 18 45 -1 47 -44 116 -65 211 -65 81 0 96 3 150 31 70 36 138 105 166
168 27 60 34 134 33 328 l0 167 182 0 c102 0 195 5 210 10 61 24 89 96 61 156
-30 62 -47 67 -255 69 -103 1 -189 3 -192 4 -3 0 -6 121 -6 268 -1 148 -4 286
-7 308 -17 115 -29 179 -52 265 -21 82 -35 130 -85 293 l-9 27 267 0 c259 0
267 1 298 22 72 50 71 145 -3 193 -25 17 -55 18 -324 19 -164 1 -301 5 -306 9
-4 5 -9 214 -11 465 -1 251 -3 548 -5 659 l-2 201 -32 31 c-45 42 -108 44
-153 4z"/>
<path d="M1268 3035 c-2 -1 -55 -5 -118 -8 -123 -7 -144 -10 -232 -32 -153
-38 -235 -124 -213 -223 10 -47 67 -90 113 -86 12 1 29 2 37 3 8 0 29 16 47
34 52 53 109 66 305 73 153 5 245 -6 345 -41 187 -65 301 -155 588 -461 96
-103 156 -151 219 -175 48 -18 88 -19 838 -19 881 0 840 -3 874 69 33 71 -21
160 -99 162 -20 0 -375 2 -788 2 -736 2 -752 2 -775 22 -13 11 -62 61 -109
110 -246 261 -361 360 -513 440 -137 73 -265 112 -397 121 -36 3 -77 7 -92 9
-15 1 -28 2 -30 0z"/>
<path d="M284 2559 c-105 -19 -201 -94 -251 -198 -24 -48 -28 -68 -28 -141 0
-91 11 -128 55 -196 l28 -41 -30 -44 c-41 -62 -61 -137 -55 -214 5 -61 36
-145 69 -189 14 -17 12 -23 -12 -60 -79 -116 -77 -285 5 -391 l23 -32 -30 -46
c-93 -144 -67 -334 62 -450 87 -78 131 -89 370 -91 l205 -1 5 -195 c5 -209 9
-223 61 -254 52 -30 119 -13 154 41 16 23 18 52 19 218 l1 190 265 1 c146 1
288 4 315 8 145 18 245 42 503 119 l82 25 1 -264 c1 -145 2 -268 3 -274 3 -23
59 -70 93 -76 43 -8 95 14 119 51 15 23 17 61 18 325 l0 299 29 10 c17 7 264
11 653 11 674 0 661 -1 698 52 9 12 16 41 16 64 0 51 -36 100 -81 111 -52 14
-1235 8 -1319 -7 -41 -6 -169 -41 -285 -75 -233 -70 -382 -111 -435 -120 -19
-4 -57 -10 -85 -15 -27 -5 -309 -9 -625 -9 -443 -1 -581 2 -600 12 -38 19 -69
73 -66 112 6 62 48 98 124 109 92 13 136 107 87 183 -18 26 -71 53 -105 53
-60 0 -111 62 -104 128 5 57 50 92 135 106 108 18 128 166 29 216 -19 9 -40
15 -47 13 -19 -7 -81 24 -97 49 -51 79 -7 168 91 184 72 11 110 47 117 109 7
63 -36 110 -114 125 -29 6 -62 18 -73 28 -23 21 -44 62 -42 82 1 8 3 24 3 35
3 29 44 73 77 81 15 4 247 7 516 8 479 1 488 1 516 22 73 54 67 152 -12 197
-23 14 -980 19 -1051 6z"/>
</g>
</svg>
